# xmcd
#
# Track frame offsets:
#	150
#	16472
#	30938
#	47523
#	52520
#	70112
#	87776
#	102050
#	117749
#	138100
#	159769
#	173684
#	191791
#	197649
#	212975
#
# Disc length: 2995 seconds
#
# Revision: 1
# Processed by: cddbd v1.4PL0 Copyright (c) Steve Scherf et al.
# Submitted via: EasyCDDAExtractor 5.0.6
#
DISCID=b80bb10f
DTITLE=张赫 - 赫赫有名
DYEAR=2002
DGENRE=Pop
TTITLE0=God Bless
TTITLE1=Hey girl
TTITLE2=take the life of you
TTITLE3=devil's heart
TTITLE4=rain
TTITLE5=money
TTITLE6=the message
TTITLE7=你的希望在我的手里
TTITLE8=日月之爱（上）
TTITLE9=日月之爱（下）
TTITLE10=坏习惯
TTITLE11=赫爱的故事
TTITLE12=早晨香气
TTITLE13=始
TTITLE14=心魔
EXTD=
EXTT0=
EXTT1=
EXTT2=
EXTT3=
EXTT4=
EXTT5=
EXTT6=
EXTT7=
EXTT8=
EXTT9=
EXTT10=
EXTT11=
EXTT12=
EXTT13=
EXTT14=
PLAYORDER=
